<svg width="37" height="30" viewBox="0 0 37 30" fill="none" xmlns="http://www.w3.org/2000/svg">
<path d="M36.0631 6.3012C35.9677 5.95921 35.7754 5.65211 35.5094 5.41686C35.2435 5.18161 34.9152 5.02825 34.5641 4.97524L2.11521 0.0226458L2.10986 0.019631C1.73466 -0.0355862 1.35156 0.0263658 1.01288 0.197025C0.674207 0.367685 0.396469 0.638731 0.217602 0.973145C0.0387342 1.30756 -0.0325409 1.68904 0.0135106 2.06547C0.0595621 2.44191 0.220695 2.79496 0.474902 3.07639L0.497413 3.10053L7.46689 12.1942C7.61529 12.3494 7.80181 12.463 8.00785 12.5237C8.21389 12.5843 8.43223 12.5899 8.64107 12.5398L31.1105 7.11693C31.1791 7.09778 31.2508 7.09233 31.3216 7.10091C31.3923 7.10948 31.4607 7.1319 31.5228 7.1669C31.5848 7.20189 31.6394 7.24877 31.6834 7.30485C31.7274 7.36094 31.7598 7.42513 31.779 7.49377C31.7981 7.56241 31.8036 7.63415 31.795 7.7049C31.7864 7.77564 31.764 7.84401 31.729 7.90609C31.694 7.96816 31.6472 8.02274 31.5911 8.0667C31.535 8.11067 31.4708 8.14315 31.4021 8.1623L9.37427 15.1493C9.16964 15.2145 8.98572 15.3323 8.84084 15.4909C8.69597 15.6494 8.59522 15.8432 8.54865 16.0529L7.29253 27.4473C7.289 27.4629 7.28623 27.4772 7.28375 27.4926C7.14835 28.2329 7.4434 28.9753 8.08131 29.3737L8.14817 29.4114C8.47751 29.5995 8.85584 29.6842 9.23396 29.6544C9.61208 29.6247 9.97251 29.4819 10.2684 29.2445L35.4599 8.21374C35.7345 7.98732 35.9376 7.68619 36.0446 7.34677C36.1517 7.00736 36.1581 6.64419 36.0631 6.3012Z" fill="#FF7E00"/>
</svg>
