<svg width="46" height="30" viewBox="0 0 46 30" fill="none" xmlns="http://www.w3.org/2000/svg">
<path d="M44.805 3.74019L37.6346 0.429088C37.0318 0.149849 36.3759 0.00356372 35.7115 0.000160355C35.0471 -0.00324301 34.3898 0.136315 33.7841 0.409363L7.32829 11.8594L1.91662 10.3982C1.60597 10.3175 1.27783 10.3365 0.978535 10.4524C0.679245 10.5683 0.423928 10.7753 0.248635 11.0442C0.0733414 11.3131 -0.0130716 11.6302 0.00159784 11.9508C0.0162672 12.2714 0.131278 12.5793 0.33039 12.8311L4.70806 18.2425C4.77987 18.3327 4.87363 18.4031 4.98039 18.4467C5.08715 18.4904 5.20333 18.5059 5.31781 18.4918C6.9676 18.2455 13.2953 16.5087 20.8012 14.3322L19.0626 28.3962C19.0474 28.518 19.0656 28.6416 19.1154 28.7537C19.1652 28.8659 19.2447 28.9623 19.3452 29.0326C19.4458 29.1029 19.5637 29.1444 19.6861 29.1527C19.8085 29.1609 19.9309 29.1356 20.04 29.0794L23.5859 27.2605C23.7803 27.1598 23.9329 26.9939 24.0172 26.7919L30.4053 11.5325C35.7825 9.94729 40.9257 8.39768 44.549 7.29929C44.9235 7.19229 45.256 6.97276 45.5015 6.67046C45.747 6.36815 45.8937 5.99768 45.9216 5.60924C45.9496 5.22079 45.8574 4.83315 45.6577 4.49883C45.4579 4.16451 45.1602 3.89967 44.805 3.74019Z" fill="#FF9933"/>
</svg>
