  <svg width="393" height="414" viewBox="0 0 393 414" fill="none" xmlns="http://www.w3.org/2000/svg">
    <path d="M42.5944 387.221C253.108 386.84 545.737 345.214 443.61 252.652C315.952 136.949 -56.584 278.36 -23.0649 138.324C1.75623 34.6263 218.243 29.8593 360.493 25.3366" stroke="#E2E2E2" stroke-width="4" stroke-dasharray="8 12"/>
    <g clip-path="url(#clip0_6_8)">
    <path d="M47.9079 387.016C47.9097 386.677 47.8136 386.346 47.6312 386.061C47.4489 385.776 47.188 385.549 46.88 385.409L18.429 372.399L18.4249 372.395C18.0954 372.247 17.7281 372.203 17.3731 372.271C17.0181 372.339 16.6928 372.515 16.4415 372.775C16.1903 373.035 16.0253 373.366 15.9693 373.723C15.9132 374.08 15.9688 374.446 16.1283 374.77L16.1427 374.798L20.1574 384.953C20.2529 385.134 20.3942 385.287 20.5673 385.396C20.7403 385.506 20.939 385.568 21.1435 385.576L43.1552 386.471C43.2231 386.471 43.2903 386.485 43.3529 386.511C43.4155 386.537 43.4723 386.576 43.5201 386.624C43.5679 386.672 43.6057 386.73 43.6313 386.793C43.657 386.855 43.67 386.923 43.6696 386.991C43.6693 387.059 43.6555 387.126 43.6292 387.188C43.6029 387.251 43.5645 387.308 43.5162 387.356C43.4679 387.403 43.4107 387.441 43.3478 387.467C43.2849 387.492 43.2176 387.505 43.1497 387.505L21.1344 388.16C20.9298 388.166 20.7305 388.226 20.5563 388.334C20.3821 388.441 20.2392 388.592 20.1418 388.772L16.016 398.889C16.0087 398.902 16.0025 398.915 15.9962 398.928C15.6788 399.571 15.7555 400.329 16.2362 400.861L16.2877 400.913C16.5405 401.171 16.8651 401.348 17.2195 401.419C17.5739 401.49 17.9415 401.454 18.2747 401.313L46.8557 388.611C47.1665 388.476 47.4313 388.253 47.618 387.969C47.8048 387.686 47.9055 387.355 47.9079 387.016Z" fill="#E2E2E2"/>
    </g>
    <g clip-path="url(#clip1_6_8)">
    <path d="M344.566 15.2865L349.543 20.1947L358.588 19.0056L349.133 14.218C349.04 14.1724 348.936 14.1527 348.832 14.1608L344.967 14.2549C344.848 14.2559 344.732 14.2927 344.634 14.3604C344.536 14.4281 344.46 14.5237 344.417 14.6349C344.374 14.746 344.365 14.8675 344.392 14.9837C344.418 15.0998 344.479 15.2053 344.566 15.2865Z" fill="#E2E2E2"/>
    <path d="M376.446 25.765L370.738 20.8583C370.259 20.445 369.696 20.1397 369.087 19.9631C368.479 19.7866 367.84 19.7429 367.214 19.8351L339.975 23.4248L335.396 20.6728C335.132 20.5178 334.826 20.4495 334.522 20.4776C334.217 20.5058 333.929 20.6289 333.698 20.8295C333.467 21.0302 333.305 21.2984 333.235 21.5961C333.165 21.8938 333.19 22.2061 333.307 22.4888L335.907 28.5918C335.949 28.6933 336.017 28.7822 336.103 28.8501C336.19 28.918 336.292 28.9625 336.401 28.9795C337.977 29.1843 344.231 29.2441 351.679 29.2083L346.414 41.646C346.368 41.7536 346.353 41.8717 346.369 41.9875C346.386 42.1033 346.433 42.2124 346.507 42.3031C346.581 42.3938 346.678 42.4626 346.788 42.5022C346.898 42.5417 347.017 42.5504 347.132 42.5273L350.857 41.7857C351.061 41.7441 351.245 41.6319 351.375 41.4687L361.213 29.1489C366.556 29.0995 371.675 29.0216 375.283 28.9606C375.654 28.9603 376.016 28.8458 376.32 28.6328C376.624 28.4198 376.855 28.1185 376.982 27.7697C377.109 27.421 377.126 27.0416 377.03 26.683C376.934 26.3244 376.731 26.0039 376.446 25.765Z" fill="#E2E2E2"/>
    </g>
    <defs>
    <clipPath id="clip0_6_8">
    <rect width="37.4484" height="37.4484" fill="white" transform="translate(25.6058 360.414) rotate(45.3048)"/>
    </clipPath>
    <clipPath id="clip1_6_8">
    <rect width="42.0447" height="42.0447" fill="white" transform="translate(344.56) rotate(28.5002)"/>
    </clipPath>
    </defs>
  </svg>