<svg width="139" height="97" viewBox="0 0 139 97" fill="none" xmlns="http://www.w3.org/2000/svg">
<rect width="139" height="97" fill="transparent"/>
<path d="M19.2997 44.3192H15.7102C15.2389 44.3192 15.0032 44.0836 15.0032 43.6122V39.4789C15.0032 39.0075 15.2389 38.7718 15.7102 38.7718H19.2997V32.1911C19.2997 31.7198 19.5173 31.4841 19.9524 31.4841H20.2243C21.9646 31.4841 23.2699 31.8829 24.1401 32.6806C25.0465 33.4783 25.4997 34.856 25.4997 36.8139V38.7718H29.9594C30.4308 38.7718 30.6664 39.0075 30.6664 39.4789V43.6122C30.6664 44.0836 30.4308 44.3192 29.9594 44.3192H25.4997V58.8403C25.4997 59.3117 25.2641 59.5474 24.7927 59.5474H19.9524C19.5173 59.5474 19.2997 59.3117 19.2997 58.8403V44.3192ZM43.8007 60.0912C40.5013 60.0912 37.8545 59.0941 35.8603 57.1C33.9024 55.0696 32.9235 52.4046 32.9235 49.1052C32.9235 45.8058 33.8843 43.159 35.8059 41.1648C37.7638 39.1707 40.3925 38.1736 43.6919 38.1736C47.0276 38.1736 49.6744 39.1707 51.6323 41.1648C53.5902 43.159 54.5692 45.8058 54.5692 49.1052C54.5692 52.4046 53.6083 55.0696 51.6867 57.1C49.765 59.0941 47.1364 60.0912 43.8007 60.0912ZM43.6919 54.2175C44.8159 54.2175 45.8311 53.8731 46.7375 53.1842C47.644 52.459 48.0972 51.1356 48.0972 49.214C48.0972 47.3286 47.644 46.0052 46.7375 45.2438C45.8674 44.4824 44.8703 44.1017 43.7463 44.1017C42.6223 44.1017 41.6071 44.4824 40.7007 45.2438C39.7942 46.0052 39.341 47.3286 39.341 49.214C39.341 51.1356 39.7761 52.459 40.6463 53.1842C41.5527 53.8731 42.5679 54.2175 43.6919 54.2175ZM73.1191 56.7193C72.4302 57.5895 71.56 58.2784 70.5085 58.786C69.4571 59.2936 68.2968 59.5474 67.0278 59.5474C63.946 59.5474 61.6073 58.5503 60.012 56.5561C58.4529 54.562 57.6734 52.0421 57.6734 48.9964C57.6734 46.966 58.0541 45.135 58.8155 43.5034C59.5769 41.8356 60.6647 40.5303 62.0787 39.5876C63.4927 38.6087 65.1787 38.1192 67.1366 38.1192C68.8044 38.1192 70.1641 38.4093 71.2156 38.9894C72.3033 39.5333 73.1553 40.1678 73.7717 40.8929C74.1705 40.1315 74.7507 39.5876 75.5121 39.2613C76.3097 38.935 77.2706 38.7718 78.3945 38.7718H78.6665C79.1378 38.7718 79.3735 39.0075 79.3735 39.4789V58.4596C79.3735 61.614 78.4671 64.1339 76.6542 66.0193C74.8776 67.9047 72.1764 68.8474 68.5506 68.8474C66.5202 68.8474 64.7617 68.5211 63.2752 67.8684C61.8249 67.2158 60.7009 66.3638 59.9032 65.3123C59.1418 64.2971 58.7611 63.2275 58.7611 62.1035C58.7611 61.7409 58.8155 61.4328 58.9243 61.1789C59.0693 60.9614 59.2687 60.8526 59.5225 60.8526C59.7038 60.8526 59.9576 60.9795 60.2839 61.2333C60.9366 61.7047 61.7705 62.1398 62.7857 62.5386C63.8372 62.9737 65.2512 63.1912 67.0278 63.1912C69.2758 63.1912 70.853 62.738 71.7594 61.8316C72.6659 60.9614 73.1191 59.8556 73.1191 58.514V56.7193ZM68.7138 54.2175C69.1852 54.2175 69.7653 54.1087 70.4542 53.8912C71.1431 53.6374 71.7594 53.1479 72.3033 52.4228C72.8472 51.6614 73.1191 50.5374 73.1191 49.0508C73.1191 47.5643 72.8472 46.4766 72.3033 45.7877C71.7957 45.0988 71.1974 44.6637 70.5085 44.4824C69.8197 44.2649 69.2214 44.1561 68.7138 44.1561C68.2425 44.1561 67.6442 44.2649 66.9191 44.4824C66.1939 44.6637 65.5413 45.0988 64.9612 45.7877C64.381 46.4766 64.091 47.5643 64.091 49.0508C64.091 50.5374 64.3629 51.6614 64.9068 52.4228C65.4869 53.1479 66.1395 53.6374 66.8647 53.8912C67.6261 54.1087 68.2425 54.2175 68.7138 54.2175ZM98.5595 56.7193C97.8706 57.5895 97.0004 58.2784 95.9489 58.786C94.8975 59.2936 93.7372 59.5474 92.4682 59.5474C89.3863 59.5474 87.0477 58.5503 85.4524 56.5561C83.8933 54.562 83.1138 52.0421 83.1138 48.9964C83.1138 46.966 83.4945 45.135 84.2559 43.5034C85.0173 41.8356 86.1051 40.5303 87.5191 39.5876C88.9331 38.6087 90.6191 38.1192 92.577 38.1192C94.2448 38.1192 95.6045 38.4093 96.656 38.9894C97.7437 39.5333 98.5957 40.1678 99.2121 40.8929C99.6109 40.1315 100.191 39.5876 100.952 39.2613C101.75 38.935 102.711 38.7718 103.835 38.7718H104.107C104.578 38.7718 104.814 39.0075 104.814 39.4789V58.4596C104.814 61.614 103.907 64.1339 102.095 66.0193C100.318 67.9047 97.6168 68.8474 93.991 68.8474C91.9606 68.8474 90.2021 68.5211 88.7156 67.8684C87.2653 67.2158 86.1413 66.3638 85.3436 65.3123C84.5822 64.2971 84.2015 63.2275 84.2015 62.1035C84.2015 61.7409 84.2559 61.4328 84.3647 61.1789C84.5097 60.9614 84.7091 60.8526 84.9629 60.8526C85.1442 60.8526 85.398 60.9795 85.7243 61.2333C86.377 61.7047 87.2109 62.1398 88.2261 62.5386C89.2776 62.9737 90.6916 63.1912 92.4682 63.1912C94.7162 63.1912 96.2934 62.738 97.1998 61.8316C98.1063 60.9614 98.5595 59.8556 98.5595 58.514V56.7193ZM94.1542 54.2175C94.6256 54.2175 95.2057 54.1087 95.8946 53.8912C96.5835 53.6374 97.1998 53.1479 97.7437 52.4228C98.2876 51.6614 98.5595 50.5374 98.5595 49.0508C98.5595 47.5643 98.2876 46.4766 97.7437 45.7877C97.2361 45.0988 96.6378 44.6637 95.9489 44.4824C95.2601 44.2649 94.6618 44.1561 94.1542 44.1561C93.6829 44.1561 93.0846 44.2649 92.3595 44.4824C91.6343 44.6637 90.9817 45.0988 90.4016 45.7877C89.8214 46.4766 89.5314 47.5643 89.5314 49.0508C89.5314 50.5374 89.8033 51.6614 90.3472 52.4228C90.9273 53.1479 91.5799 53.6374 92.3051 53.8912C93.0665 54.1087 93.6829 54.2175 94.1542 54.2175ZM119.431 60.0912C116.132 60.0912 113.485 59.0941 111.491 57.1C109.533 55.0696 108.554 52.4046 108.554 49.1052C108.554 45.8058 109.515 43.159 111.437 41.1648C113.395 39.1707 116.023 38.1736 119.323 38.1736C122.658 38.1736 125.305 39.1707 127.263 41.1648C129.221 43.159 130.2 45.8058 130.2 49.1052C130.2 52.4046 129.239 55.0696 127.317 57.1C125.396 59.0941 122.767 60.0912 119.431 60.0912ZM119.323 54.2175C120.447 54.2175 121.462 53.8731 122.368 53.1842C123.275 52.459 123.728 51.1356 123.728 49.214C123.728 47.3286 123.275 46.0052 122.368 45.2438C121.498 44.4824 120.501 44.1017 119.377 44.1017C118.253 44.1017 117.238 44.4824 116.331 45.2438C115.425 46.0052 114.972 47.3286 114.972 49.214C114.972 51.1356 115.407 52.459 116.277 53.1842C117.183 53.8731 118.199 54.2175 119.323 54.2175Z" fill="#FF7E00"/>
</svg>
